%TF.GenerationSoftware,Altium Limited,Altium Designer,26.5.0 (11)*%
G04 Layer_Physical_Order=2*
G04 Layer_Color=16711680*
G04 Board_Origin=57086614|14173228*
%FSLAX45Y45*%
%MOMM*%
%TF.SameCoordinates,EDE425B0-8C6F-4369-A82C-B621F724F493*%
%TF.FilePolarity,Positive*%
%TF.FileFunction,Copper,L2,Bot,Signal*%
%TF.Part,Single*%
G01*
G75*
%TA.AperFunction,ViaPad*%
%ADD15C,0.70000*%
G36*
X2392605Y922682D02*
X2403589Y918132D01*
X2413473Y911525D01*
X2417675Y907321D01*
Y907321D01*
X2434808Y890193D01*
X2436890Y888111D01*
X2455573Y860151D01*
X2468441Y829083D01*
X2473624Y803020D01*
X2474998Y779329D01*
Y779287D01*
X2474997Y779287D01*
X2475000Y779286D01*
X2475000Y110356D01*
X2475001Y101948D01*
X2471721Y85457D01*
X2465287Y69923D01*
X2464542Y68808D01*
X2450003Y50004D01*
X2449998Y49999D01*
X2449998D01*
X2431361Y35572D01*
X2430076Y34713D01*
X2414542Y28279D01*
X2413752Y28122D01*
X2389644Y25000D01*
Y25000D01*
X127000Y25000D01*
X111412Y23759D01*
X80868Y30481D01*
X53614Y45823D01*
X32024Y68450D01*
X25000Y82421D01*
X25000Y82422D01*
X25000Y860738D01*
X29475Y871542D01*
X42470Y890989D01*
X59009Y907528D01*
X78457Y920521D01*
X89261Y924997D01*
X89262Y925000D01*
X2375000D01*
X2380944Y925001D01*
X2392605Y922682D01*
D02*
G37*
%LPC*%
G36*
X2062700Y610116D02*
Y562700D01*
X2110116D01*
X2101205Y584214D01*
X2084214Y601205D01*
X2062700Y610116D01*
D02*
G37*
G36*
X2037300D02*
X2015786Y601205D01*
X1998795Y584214D01*
X1989884Y562700D01*
X2037300D01*
Y610116D01*
D02*
G37*
G36*
X2110116Y537300D02*
X2062700D01*
Y489884D01*
X2084214Y498796D01*
X2101205Y515786D01*
X2110116Y537300D01*
D02*
G37*
G36*
X2037300D02*
X1989884D01*
X1998795Y515786D01*
X2015786Y498796D01*
X2037300Y489884D01*
Y537300D01*
D02*
G37*
G36*
X1012700Y510116D02*
Y462700D01*
X1060116D01*
X1051205Y484214D01*
X1034214Y501205D01*
X1012700Y510116D01*
D02*
G37*
G36*
X987300D02*
X965786Y501205D01*
X948795Y484214D01*
X939884Y462700D01*
X987300D01*
Y510116D01*
D02*
G37*
G36*
X687700Y460116D02*
Y412700D01*
X735116D01*
X726205Y434214D01*
X709214Y451205D01*
X687700Y460116D01*
D02*
G37*
G36*
X662300D02*
X640786Y451205D01*
X623795Y434214D01*
X614884Y412700D01*
X662300D01*
Y460116D01*
D02*
G37*
G36*
X1060116Y437300D02*
X1012700D01*
Y389884D01*
X1034214Y398795D01*
X1051205Y415786D01*
X1060116Y437300D01*
D02*
G37*
G36*
X987300D02*
X939884D01*
X948795Y415786D01*
X965786Y398795D01*
X987300Y389884D01*
Y437300D01*
D02*
G37*
G36*
X735116Y387300D02*
X687700D01*
Y339884D01*
X709214Y348795D01*
X726205Y365786D01*
X735116Y387300D01*
D02*
G37*
G36*
X662300D02*
X614884D01*
X623795Y365786D01*
X640786Y348795D01*
X662300Y339884D01*
Y387300D01*
D02*
G37*
G36*
X862700Y310116D02*
Y262700D01*
X910116D01*
X901205Y284214D01*
X884214Y301205D01*
X862700Y310116D01*
D02*
G37*
G36*
X837300D02*
X815786Y301205D01*
X798795Y284214D01*
X789884Y262700D01*
X837300D01*
Y310116D01*
D02*
G37*
G36*
X1612700Y285116D02*
Y237700D01*
X1660116D01*
X1651205Y259214D01*
X1634214Y276205D01*
X1612700Y285116D01*
D02*
G37*
G36*
X1587300D02*
X1565786Y276205D01*
X1548795Y259214D01*
X1539884Y237700D01*
X1587300D01*
Y285116D01*
D02*
G37*
G36*
X910116Y237300D02*
X862700D01*
Y189884D01*
X884214Y198795D01*
X901205Y215786D01*
X910116Y237300D01*
D02*
G37*
G36*
X837300D02*
X789884D01*
X798795Y215786D01*
X815786Y198795D01*
X837300Y189884D01*
Y237300D01*
D02*
G37*
G36*
X1660116Y212300D02*
X1612700D01*
Y164884D01*
X1634214Y173795D01*
X1651205Y190786D01*
X1660116Y212300D01*
D02*
G37*
G36*
X1587300D02*
X1539884D01*
X1548795Y190786D01*
X1565786Y173795D01*
X1587300Y164884D01*
Y212300D01*
D02*
G37*
%LPD*%
D15*
X1600000Y225000D02*
D03*
X850000Y250000D02*
D03*
X1000000Y450000D02*
D03*
X675000Y400000D02*
D03*
X2050000Y550000D02*
D03*
%TF.MD5,5d38925b89b277a4d351c630b1963632*%
M02*
