%TF.GenerationSoftware,Altium Limited,Altium Designer,26.5.0 (11)*%
G04 Layer_Physical_Order=1*
G04 Layer_Color=255*
G04 Board_Origin=57086614|14173228*
%FSLAX45Y45*%
%MOMM*%
%TF.SameCoordinates,EDE425B0-8C6F-4369-A82C-B621F724F493*%
%TF.FilePolarity,Positive*%
%TF.FileFunction,Copper,L1,Top,Signal*%
%TF.Part,Single*%
G01*
G75*
%TA.AperFunction,SMDPad,CuDef*%
%ADD10R,1.45000X1.25000*%
%ADD11R,1.00000X0.66000*%
%ADD12R,1.70000X0.60000*%
%ADD13R,2.70000X1.00000*%
%TA.AperFunction,Conductor*%
%ADD14C,0.30000*%
%TA.AperFunction,ViaPad*%
%ADD15C,0.70000*%
D10*
X1600000Y367500D02*
D03*
Y532500D02*
D03*
X850000Y385000D02*
D03*
Y550000D02*
D03*
D11*
X1375000Y540000D02*
D03*
X1115000Y445000D02*
D03*
X1375000Y350000D02*
D03*
X1115000D02*
D03*
Y540000D02*
D03*
D12*
X1900000Y425000D02*
D03*
Y550000D02*
D03*
X525000Y400000D02*
D03*
Y525000D02*
D03*
D13*
X2220000Y735000D02*
D03*
Y240000D02*
D03*
X205000Y215000D02*
D03*
Y710000D02*
D03*
D14*
X1600000Y225000D02*
Y367500D01*
X1885000Y440000D02*
X1900000Y425000D01*
X1777574Y440000D02*
X1885000D01*
X1750000Y467574D02*
X1777574Y440000D01*
X1750000Y467574D02*
Y500000D01*
X1717500Y532500D02*
X1750000Y500000D01*
X1600000Y532500D02*
X1717500D01*
X1587500Y545000D02*
X1600000Y532500D01*
X1380000Y545000D02*
X1587500D01*
X850000Y250000D02*
Y385000D01*
X1000000Y450000D02*
X1120000D01*
X600000Y400000D02*
X675000D01*
X1900000Y550000D02*
X2050000D01*
X900000D02*
X905000Y545000D01*
X761250Y550000D02*
X900000D01*
X1120000Y545000D02*
X1205000D01*
X905000D02*
X1120000D01*
Y355000D02*
X1205000D01*
X1250000Y400000D01*
Y500000D01*
X1205000Y545000D02*
X1250000Y500000D01*
X736250Y525000D02*
X761250Y550000D01*
X600000Y525000D02*
X736250D01*
D15*
X1600000Y225000D02*
D03*
X850000Y250000D02*
D03*
X1000000Y450000D02*
D03*
X675000Y400000D02*
D03*
X2050000Y550000D02*
D03*
%TF.MD5,022ca0762b525089b0081193d70f5207*%
M02*
